<svg width="68" height="49" viewBox="0 0 68 49" fill="none" xmlns="http://www.w3.org/2000/svg">
<path d="M67.32 10.543C67.32 10.543 66.6549 5.75469 64.617 3.64608C62.0309 0.877318 59.1324 0.864289 57.8042 0.703592C48.2885 0 34.0149 0 34.0149 0H33.9851C33.9851 0 19.7115 0 10.1958 0.703592C8.8655 0.864289 5.96913 0.877318 3.38088 3.64608C1.343 5.75469 0.68 10.543 0.68 10.543C0.68 10.543 0 16.1674 0 21.7896V27.0622C0 32.6866 0.68 38.3088 0.68 38.3088C0.68 38.3088 1.343 43.0972 3.38088 45.2058C5.96913 47.9745 9.367 47.8877 10.88 48.1765C16.32 48.7107 34 48.8757 34 48.8757C34 48.8757 48.2885 48.854 57.8042 48.1504C59.1324 47.9876 62.0309 47.9745 64.617 45.2058C66.6549 43.0972 67.32 38.3088 67.32 38.3088C67.32 38.3088 68 32.6866 68 27.0622V21.7896C68 16.1674 67.32 10.543 67.32 10.543Z" fill="#2B2B2B"/>
<path d="M26.979 33.451L26.9769 13.9263L45.3496 23.7223L26.979 33.451Z" fill="white"/>
</svg>
